<svg id="Like" xmlns="http://www.w3.org/2000/svg" viewBox="0 0 100 100"><defs><style>.cls-1{fill:#666;}.cls-2{fill:none;}</style></defs><title>like</title><path id="Like-2" data-name="Like" class="cls-1" d="M85,235a20,20,0,0,0-35-13.18A20,20,0,0,0,19,247h0l27,36c.06.08.13.15.19.22l.12.14a5.25,5.25,0,0,0,.65.6s0,0,0,0l.08.05a5.35,5.35,0,0,0,.54.34l.12.07a5.24,5.24,0,0,0,.65.27l.18,0a3.3,3.3,0,0,0,.52.13l.22,0A4.91,4.91,0,0,0,50,285h0a4.91,4.91,0,0,0,.67-.05l.22,0a3.3,3.3,0,0,0,.52-.13l.18,0a5.24,5.24,0,0,0,.65-.27l.12-.07a4.42,4.42,0,0,0,.54-.34L53,284s0,0,0,0a5.25,5.25,0,0,0,.65-.6l.12-.14c.06-.07.13-.14.19-.22l27-36h0A19.91,19.91,0,0,0,85,235Zm-12,6L62.62,254.84,50,271.67,37.38,254.84,27,241a10,10,0,0,1,14.06-13.94l.06.06,0-.05,0,0s0,0,0,0l2,2.09,3.32,3.33a5,5,0,0,0,7.08,0l3.32-3.33,2-2.09s0,0,0,0l0,0,0,.05.06-.06A10,10,0,0,1,73,241Z" transform="translate(0 -200)"/><rect class="cls-2" width="100" height="100"/></svg>