<svg id="Liked" xmlns="http://www.w3.org/2000/svg" viewBox="0 0 100 100"><defs><style>.cls-1{fill:#666;}.cls-2{fill:none;}</style></defs><title>liked</title><path id="Liked-2" data-name="Liked" class="cls-1" d="M146,283c.06.08.13.15.19.22l.12.14a5.25,5.25,0,0,0,.65.6s0,0,0,0l.08.05a5.35,5.35,0,0,0,.54.34l.12.07a5.24,5.24,0,0,0,.65.27l.18,0a3.3,3.3,0,0,0,.52.13l.22,0a4.91,4.91,0,0,0,.67.05h0a4.91,4.91,0,0,0,.67-.05l.22,0a3.3,3.3,0,0,0,.52-.13l.18,0a5.24,5.24,0,0,0,.65-.27l.12-.07a4.42,4.42,0,0,0,.54-.34L153,284s0,0,0,0a5.25,5.25,0,0,0,.65-.6l.12-.14c.06-.07.13-.14.19-.22l27-36h0a20,20,0,0,0-31-25.18A20,20,0,0,0,119,247h0" transform="translate(-100 -200)"/><rect class="cls-2" width="100" height="100"/></svg>